Simulation
nRows=34
nColumns=15
endheader
time  TH_x TH_y TH_z SC_y  SC_z  SC_x  AC_y  AC_z  AC_x  GH_y  GH_z  GH_yy  EL_x  PS_y
2.4010000000000002  0.000000  0.000000  0.000000  -26.179967913728273  4.447142242958072  -10.64062187885541  50.06913334971987  12.44129438380302  5.702754389207454  -10.769226764298695  31.977248415156  16.73748023356569  11.275010050246875  120.000000
2.4490200000000004  0.000000  0.000000  0.000000  -24.605623203814805  3.788699732180352  -12.154939435932725  49.62659419376449  12.488721590044031  5.9448523292346875  -10.324755578784888  28.241934470864678  20.614889664530264  11.588293975266996  120.000000
2.49704  0.000000  0.000000  0.000000  -23.372165078660743  3.283198243187227  -13.405218336033025  49.24398467582931  12.65235877228109  6.204375709835111  -9.802726588467637  24.68623220615061  24.92289465721336  12.146123524711884  120.000000
2.5450600000000003  0.000000  0.000000  0.000000  -22.523679295285888  2.9458438240100406  -14.35866522561407  48.952118174419276  12.924923747748954  6.464052279278949  -9.153302766185593  21.349216838268514  29.36809669391723  12.957119080847642  120.000000
2.5930800000000005  0.000000  0.000000  0.000000  -22.06121203326025  2.7783490552576335  -14.997144162374958  48.771869152838775  13.30080679109094  6.710285234920818  -8.244271604163961  18.25560152205433  33.54150726598529  13.95535835400479  120.000000
2.6411000000000002  0.000000  0.000000  0.000000  -21.95173782824187  2.7644799463246588  -15.313664586941913  48.708397893287135  13.765665887391842  6.927992889066169  -6.832717151442341  15.42137955072232  36.923916880162764  15.031696567959298  120.000000
2.6891200000000004  0.000000  0.000000  0.000000  -22.140571230466406  2.8771452100380435  -15.317962984901003  48.74854477797853  14.29354585278078  7.097840331881636  -4.565489186811938  12.862443606694713  38.9241380334487  16.070197310764726  120.000000
2.7371400000000006  0.000000  0.000000  0.000000  -22.559530050344247  3.086445577219429  -15.039918644963796  48.868493325839744  14.847094487141609  7.198537886789341  -0.9883374633046478  10.605958965311629  38.9265457826358  16.976263783389218  120.000000
2.7851600000000003  0.000000  0.000000  0.000000  -23.13041611868068  3.3577706191411534  -14.523935059519687  49.04254494269266  15.379981038850968  7.217644101525899  4.422876855463037  8.695476876125745  36.34717063496082  17.69127821897311  120.000000
2.8331800000000005  0.000000  0.000000  0.000000  -23.77593226935107  3.6534038648662084  -13.826593736026071  49.248897691510415  15.848215659922715  7.158314103441362  12.148258019125992  7.187915698627536  30.741607862604248  18.190262328420005  120.000000
2.8812000000000006  0.000000  0.000000  0.000000  -24.427160325829686  3.9426524909667395  -13.013426689026803  49.47125438204715  16.220250096848396  7.034604681681554  22.201888471331625  6.137669038385197  22.197970842979835  18.471172491504113  120.000000
2.9292200000000004  0.000000  0.000000  0.000000  -25.028452270871362  4.2068066167258005  -12.151064625538092  49.69877223276072  16.480371206669403  6.862744950185576  33.51446091440572  5.562506121893232  11.917530130734358  18.54807334395845  120.000000
2.9772400000000006  0.000000  0.000000  0.000000  -25.537920030014476  4.436323552153906  -11.30551549206432  49.92332056884042  16.629549808796487  6.660133052379616  44.03987069798811  5.408243880796724  2.0778701042889955  18.45223810560768  120.000000
3.0252600000000003  0.000000  0.000000  0.000000  -25.93108643526796  4.623651117192983  -10.534963849814257  50.12983929669941  16.676827623809803  6.447458988909999  52.020075795151826  5.560387404165188  -5.4498298601164805  18.231811244575436  120.000000
3.0732800000000005  0.000000  0.000000  0.000000  -26.197778510656764  4.761809017710886  -9.883353440206063  50.29979798722746  16.63048292429088  6.240146963434335  56.916970404996825  5.9037806679554015  -10.039716318094213  17.94498511875624  120.000000
3.1213000000000006  0.000000  0.000000  0.000000  -26.331321399626518  4.844667927489186  -9.380982209729856  50.42295868373437  16.493192512574698  6.045011252505208  59.151874124670776  6.366675364582348  -12.049161128041487  17.650615671389254  120.000000
3.1693200000000004  0.000000  0.000000  0.000000  -26.326150777666165  4.865522858805978  -9.044825274546973  50.497881741426596  16.2636282195061  5.860966720152249  59.45281606553949  6.9210047612658805  -12.166417582843836  17.389713990681315  120.000000
3.2173400000000005  0.000000  0.000000  0.000000  -26.18828538834096  4.8253581597138115  -8.881199416505321  50.51702197103563  15.949396004308124  5.679579340424247  58.39184453875662  7.556411581106007  -10.948318570596971  17.164680778516537  120.000000
3.2653600000000003  0.000000  0.000000  0.000000  -25.93945867644293  4.731196753353656  -8.887887963060777  50.46184803659676  15.571804811082773  5.493728090773397  56.30436150155458  8.267983539958896  -8.735586258928  16.936449889428545  120.000000
3.3133800000000004  0.000000  0.000000  0.000000  -25.606046424328067  4.5846374470686975  -9.05774288191974  50.320423702797434  15.161324369213427  5.304710395456827  53.4441350031785  9.067503523862538  -5.801076332820075  16.64616288783361  120.000000
3.3614000000000006  0.000000  0.000000  0.000000  -25.213400485654446  4.381407761499643  -9.380621642324178  50.097295348637296  14.754926612802773  5.1197228593934  50.053377736258454  9.986761922047727  -2.4170964815027767  16.242087102939742  120.000000
3.4094200000000003  0.000000  0.000000  0.000000  -24.786149708994618  4.117949233211535  -9.841843232870035  49.808526196352766  14.393974393713693  4.9486918094800245  46.34059119818293  11.068147556994143  1.1703688111042936  15.700297251774868  120.000000
3.4574400000000005  0.000000  0.000000  0.000000  -24.35028649442569  3.7946475596498472  -10.419553525897715  49.47549190668802  14.117721898266044  4.802410009792943  42.47982897696976  12.35626495037174  4.746553081127107  15.037588859129976  120.000000
3.5054600000000007  0.000000  0.000000  0.000000  -23.932357986183185  3.4201471375231924  -11.085920412438922  49.124599790111915  13.958206097424391  4.690332412385087  38.62589313520906  13.891913649545566  8.116443343646722  14.308199875506753  120.000000
3.5534800000000004  0.000000  0.000000  0.000000  -23.559889124162968  3.0126928550897527  -11.807203295652574  48.78208698374935  13.939114865897544  4.621634147928133  34.91019889302471  15.705098539509068  11.109222795961522  13.583943216143318  120.000000
3.6015000000000006  0.000000  0.000000  0.000000  -23.259330654439086  2.603399975033463  -12.540940118804745  48.46756095063186  14.077495343873686  4.606470719964784  31.429343308182116  17.806815069786417  13.591160870954212  12.931672939836643  120.000000
3.6495200000000008  0.000000  0.000000  0.000000  -23.042766364029113  2.236322415792712  -13.236720132482963  48.19933751449183  14.388826781696544  4.651932453486714  28.2507250978653  20.18224574144867  15.462280473848791  12.396037753061025  120.000000
3.6975400000000005  0.000000  0.000000  0.000000  -22.90477150084643  1.9473364828436495  -13.83648236038912  47.98217272775843  14.884521745226154  4.769044987829069  25.39263778849611  22.777918885485764  16.678877272467876  11.989680883830857  120.000000
3.7455600000000007  0.000000  0.000000  0.000000  -22.824720510913295  1.765213320829648  -14.288358860482527  47.80807125404051  15.574384771575023  4.978630358534618  22.828419942684363  25.507189589067593  17.256647299064404  11.702163131619491  120.000000
3.7935800000000004  0.000000  0.000000  0.000000  -22.773760438036863  1.721600147289476  -14.556614054595496  47.681085744435514  16.462445390884216  5.290279942594974  20.522697529788466  28.28303440508943  17.238364312260124  11.510602883222873  120.000000
3.8416000000000006  0.000000  0.000000  0.000000  -22.73562370743807  1.837314302174291  -14.613295496876788  47.6073928672696  17.52475784345876  5.700522600480983  18.430877320118697  31.03219086113202  16.700546359565372  11.38739874490456  120.000000
3.8896200000000007  0.000000  0.000000  0.000000  -22.714426441497036  2.1122306107701982  -14.43780768449454  47.583309433137146  18.70533968911782  6.207282169732362  16.503333949627468  33.697811319298005  15.753045525604003  11.304659866907132  120.000000
3.9376400000000005  0.000000  0.000000  0.000000  -22.724957376105802  2.5316715993549317  -14.020955466934046  47.60553525295654  19.93262980538451  6.803818161237135  14.70284617284551  36.244270068867436  14.519630679198738  11.237142724913971  120.000000
3.9856600000000006  0.000000  0.000000  0.000000  -22.785315973058072  3.0736435695425053  -13.363833619291619  47.67226343014672  21.134619614016543  7.478220021952409  13.005802139822514  38.654476086239455  13.12742582263329  11.164270774659911  120.000000
